/* XPM */
static char *result[] = {
/* columns rows colors chars-per-pixel */
"64 64 244 2 ",
"   c #E9E4A5",
".  c #E8E985",
"X  c #EBEB71",
"o  c #EFD7C9",
"O  c #EBE861",
"+  c #F3D2B6",
"@  c #F1CCB0",
"#  c #E9CBB8",
"$  c #E6CEAF",
"%  c #F0C9A4",
"&  c #EBC9AA",
"*  c #E9C6AD",
"=  c #E6C6B1",
"-  c #EDC1A1",
";  c #F8D02A",
":  c #E6BFAA",
">  c #EBBD9A",
",  c #E2BFA0",
"<  c #DAC0A8",
"1  c #EBBC90",
"2  c #DEBF9C",
"3  c #F3C816",
"4  c #D8BB9C",
"5  c #F3C211",
"6  c #EDC50C",
"7  c #DFB28D",
"8  c #E5AF81",
"9  c #C7B2B0",
"0  c #EFBB0C",
"q  c #D2AF8D",
"w  c #D3B075",
"e  c #DCA878",
"r  c #E5A56E",
"t  c #D8A781",
"y  c #CCA57D",
"u  c #D8A172",
"i  c #C0BB27",
"p  c #C4A48A",
"a  c #DD9E5F",
"s  c #D29F76",
"d  c #D59C69",
"f  c #B6B41D",
"g  c #C49B70",
"h  c #B5AB3E",
"j  c #C69466",
"k  c #C58C71",
"l  c #CD8C53",
"z  c #A7A339",
"x  c #B1906F",
"c  c #FC7727",
"v  c #AC9E21",
"b  c #CF8F06",
"n  c #A39C34",
"m  c #A39F23",
"M  c #A89B2A",
"N  c #AD904A",
"B  c #B7865B",
"V  c #A29A2B",
"C  c #A79826",
"Z  c #9F9A2D",
"A  c #9B9A36",
"S  c #A3971B",
"D  c #9E9722",
"F  c #979822",
"G  c #9A942C",
"H  c #F26A18",
"J  c #969523",
"K  c #B87C4A",
"L  c #A88159",
"P  c #9A8F32",
"I  c #999121",
"U  c #9F8447",
"Y  c #BD7639",
"T  c #A87850",
"R  c #8F8F1A",
"E  c #978534",
"W  c #987E42",
"Q  c #AA7348",
"!  c #8C8633",
"~  c #AF6E38",
"^  c #937C37",
"/  c #86802D",
"(  c #A26C45",
")  c #947629",
"_  c #F2452C",
"`  c #986C4A",
"'  c #8B7730",
"]  c #827A28",
"[  c #847538",
"{  c #8D7424",
"}  c #7F7920",
"|  c #9F633B",
" . c #84732B",
".. c #C4512B",
"X. c #A86700",
"o. c #85721E",
"O. c #996141",
"+. c #7E722D",
"@. c #7A7332",
"#. c #A85C2D",
"$. c #7D7325",
"%. c #7B695B",
"&. c #7C6761",
"*. c #985D35",
"=. c #826B23",
"-. c #786F27",
";. c #8A6042",
":. c #EB3324",
">. c #CE4512",
",. c #7A6B24",
"<. c #736D2B",
"1. c #986100",
"2. c #7C662B",
"3. c #746B24",
"4. c #905836",
"5. c #6D6A31",
"6. c #796720",
"7. c #90582F",
"8. c #766918",
"9. c #7F6121",
"0. c #E22D1D",
"q. c #C13C0F",
"w. c #6C6221",
"e. c #9E462D",
"r. c #86512E",
"t. c #834D31",
"y. c #765234",
"u. c #685442",
"i. c #695A1D",
"p. c #814C26",
"a. c #794B2D",
"s. c #C2281C",
"d. c #804520",
"f. c #5E5525",
"g. c #744525",
"h. c #594C3B",
"j. c #654630",
"k. c #584B29",
"l. c #534B1B",
"z. c #AB1D12",
"x. c #673A24",
"c. c #4C4523",
"v. c #443E24",
"b. c #4D3A15",
"n. c #4C3713",
"m. c #4B3712",
"M. c #4A3411",
"N. c #393726",
"B. c #4E3010",
"V. c #522C1A",
"C. c #4E2F0F",
"Z. c #3C361A",
"A. c #4C2F13",
"S. c #4D2D0E",
"D. c #4D2C0E",
"F. c #4C2B0E",
"G. c #4D2915",
"H. c #4C2714",
"J. c #2B312D",
"K. c #332E23",
"L. c #4E240F",
"P. c #323018",
"I. c #4B2412",
"U. c #49260C",
"Y. c #4E230E",
"T. c #641712",
"R. c #4B2312",
"E. c #4B2212",
"W. c #4A2212",
"Q. c #4A2011",
"!. c #43200E",
"~. c #411D0D",
"^. c #262422",
"/. c #202218",
"(. c #1F1F1E",
"). c #1D1E1B",
"_. c #1C1C21",
"`. c #161D1A",
"'. c #1A1A1E",
"]. c #161D16",
"[. c #1A191A",
"{. c #1A1917",
"}. c #161A1A",
"|. c #16191E",
" X c #161A15",
".X c #1A1717",
"XX c #141A17",
"oX c #151916",
"OX c #15181B",
"+X c #161816",
"@X c #161815",
"#X c #171716",
"$X c #131915",
"%X c #131819",
"&X c #141815",
"*X c #151619",
"=X c #161615",
"-X c #151712",
";X c #151617",
":X c #131717",
">X c #161517",
",X c #131714",
"<X c #161515",
"1X c #141614",
"2X c #121619",
"3X c #141516",
"4X c #101714",
"5X c #121612",
"6X c #121516",
"7X c #101616",
"8X c #131512",
"9X c #131511",
"0X c #101517",
"qX c #0F1612",
"wX c #101512",
"eX c #101511",
"rX c #101415",
"tX c #0D1515",
"yX c #141117",
"uX c #0E1511",
"iX c #121215",
"pX c #0E150E",
"aX c #0D1410",
"sX c #0F1214",
"dX c #111111",
"fX c #0E1210",
"gX c #0E120E",
"hX c #0D1210",
"jX c #0E1112",
"kX c #0E120C",
"lX c #0F1011",
"zX c #0C120E",
"xX c #0D110E",
"cX c #0D1011",
"vX c #0E100D",
"bX c #0F0E11",
"nX c #0C100D",
"mX c #0C0F10",
"MX c #0A0F11",
"NX c #0B0F0B",
"BX c #0A0F0D",
"VX c gray5",
"CX c #0C0E0A",
"ZX c #070E09",
/* pixels */
"B.B.E.E.W.F.F.R.F.F.n.F.m.m.m.m.n.n.D.n.n.D.H.D.H.H.G.G.U.F.F.F.F.F.n.n.F.F.n.n.F.F.F.U.U.U.F.F.n.n.n.n.n.n.D.H.D.H.H.G.G.U.F.!.",
"B.~.~.~.~.~.~.~.~.~.!.!.!.!.!.!.!.!.!.!.!.!.~.~.~.~.~.~.~.~.~.~.~.~.~.~.~.~.~.~.~.~.~.~.~.~.~.~.~.!.!.!.!.!.~.~.~.~.~.~.~.~.F.~.",
"n.~.wX6XjXmXiXlXsX6X2X}.6XOX6XOX}.:X0X:XwXsX0X6XiX:XwX*XOX:X|.OX'.%XOX%X%X6X6X:X|.OX+X:X6X%XrX6X6X:XrXwXrXsXjXsXsX'.%X1X{.^.W.~.",
"H.~.'.0XrXsXbX:X2X:XmXuXhXsX&XtXmX}.}.OX6X3X6X[.wXsXsX:X|.jXsX:X%X_.`.XX0XrX6X:XmX+XBX6X2X:X;X3XuX3X[.[.}.:X}.).}.|.).}._.).W.~.",
"H.~.OXiX6X6XcXrXiXrXjX6X*X*X%X@X_.6XOX3X1X:XrXdX*X*X:X6XsX6X}.6X6XsX1X8XsX:X6X:X6X%X6X,XrXrX6XwX:XOX:XOX6X6XuX:XOX*XwX3X1X:XC.!.",
"H.~.|.}.6XrXsX6X:X[.rX3XiX6XiXsX%X6X:X6XsXmXsX6X:X8XdXOX:XfXhX8XsX6X+XfXmXwXhXsX+X6XsX6X;X:X}.*X%X;XrXsX}.6X3X*X'.'.;X}.'.sXC.!.",
"H.~.|.jXsXsXmXcXbXsXfX6X*XiX*X3X*X*X%XXX}.vX X}.*X[.8X#X<X}.+X9XwXnXfXwXiX}.1XeX>X6X,X3XsX_.:XsX%X}.wXfXjX8X6XiXdXOX+X[.XX).H.!.",
"H.!.:X6XjXOX(.%X%XoX'.*XrX3X6X6X8XiX*XOXXX}.8X(.h.K.^.(.K./.,X1X}.sXwXmXmX1XwXjX4XsXbXwX*X:XwXrXsX1X:XwX:XrX1X:X*X%X1X6X}.XXH.!.",
"C.!.6X0X:X3XsXsX6XsXjXBX*X*X:X%X;X3X$X'.N.N.%.x p g g g y x h.K.[.1XnX8X*XrXwXsXqXdXiXdX8X1XOXrX:X*X3X}.:X*XwX6X6XvX4X+X:X1XC.!.",
"C.!.sX2X*X6X%X*X6XXX*X:X[.'.'.*X[.[.N.g q q 4 q q < p 4 B g y x ( /.9XmXdXwXsXmXiXjXsXiXsX7X3XsXdXsX1XwX,XsX1XiX1X8X*XsXMX1XC.!.",
"L.!.OXiX6X2X`.iX3XsXbXsX:X*X+X5XN.x 9 q 9 q p , q q s 4 4 y g g L h.).>X8XwXmXfXsXzXsX1XnXrXBXjXsXiXfX1XBXwXbXBXfXsXwXxXwXwXL.!.",
"L.~.}.`.:X*XsX6XcX1X6XrX1X}.).J.x < : : # 4 p 4 j x g , 7 q q 7 g O.T h.;X1X8X4XwX9XlXBXrX8X1XBXBXwXgX3X1XfX6XfX8XsXjXwXiX}.C.!.",
"C.~.'.jX1XsXsX6XrXlXiX6X1X[.J.x p y q 1 t 4 q < t y p 4 j B g 4 L y L ` K.=XlXuXlXdXlXnXwXmX6XfXjX1XrXgXlXhXwXZX3XuX+X0X{.+XL.~.",
"L.~.OXOXwX3XjX3X:XOXOX>X}.OXh.# q < < < y q y g x 4 L T j L g s L y g T y.(.1X8XsXnX6XwX1XlX:XfX8X+XrXsX6XwXsXrXmXhXsXmX6X:XG.~.",
"L.~.1X6X8X*X7XOX%X2XfXdXoX^.x < 4 y 7 s q $ B L x j q ` y 7 g s j g j ( y.h.>X3XmXnX#XwXdXvXwX:XwXfX8XrX8XfXfXfX8XsX1X1X+XXXG.~.",
"m.!.*X6XsXtXsX%X:X<X:X1XOX&.* B g > , j y j w ` y q j T ( B B ` ` O.B j t.j.[.9X8XlX1X8XsX8XrX1XaXhX9XaX;X2XrXfXsXhXsX6X:X6Xm.!.",
"n.!.%XdXwXiXhX6X6X1X1X8X).g 4 7 p y 2 q 7 T | L g L T p T r.p.4.r.4.r.B ` v.+XwXlX1XlXmX8XnX9X8XwXmXwXdXxXwX8XdX1XuXfXwX1X}.n.!.",
"n.!.iXiXlXmXiXbX1X6X8X1X(.4 y L y g t - B w j g L ( B 7 q T 4.7.L g.y.y.K J.dXnXlX1XbXsXdX1XsX8XiXBXrX;XoX3X:X6XsX:XsXBX:X1XD.!.",
"S.!.3X9X*XrX6X3X1X:X1X{.v.: B 2 g q B t j ( Q y k j g & 7 7 L T l O.a.a.y.K.}.XX1X1XxXhXgXfXxX6XcX8XfXfXxXwXbXsX@XhXlXjXBX;XD.!.",
"S.!.iXiXiX6XrX3X1X3X1X}.&.T j ( B K K Q Q ( B = < 7 - $ 4 1 t d s u g.a.y.(.<XdX1XsXwX9XlXdXrX6XwXwX8XlXrX4XhXwXgX9XxXlX8X8Xn.~.",
"S.!.iX3XiXiXiXwXiX8XsXMXu.s ( B t | Q Q Q O.y # # # - % > u t d d w t.x.x.).8XlX3XbXdXlXxXlXdX3XVXvXlXmXfX8XsXuXwXMXfXsXnXsXS.~.",
"S.!.sX3XhXsXiXsX3XhXdXsX|.L p B g B Q O.r.B - & , u j ( L j y j j ( r.g.y.).8XsXfXlXrXsXmXwX9XVXhXdXmXmXfXsXhXwX9XiXuXwXBXsXS.~.",
"D.~.3X*XsXdX3X3XiXdX6XeX`.%.q t T | ~ *.| 1 2 7 s 2 7 j 4.8 t ( p.*.g.x.g.).dXbXdXbXlXfXmXsXVXMXmXsXwXhXlXhXsXsXVXwXfX8XlXwXD.~.",
"D.~.sXiXlXiXiX5XwXiXmXdX#X%.g O.( ;.Q B B > > 7 7 1 g L 4.s 7 4.r.4.x.x.N.-XjX8XiXbXwXbXbXmXvXfXhXwXwXzXjXwXdX6XxXmXCXsX:X>XD.~.",
"Y.~.,X*XdXcXsXiXiXwXrX1XwX^.` Q g.O.O.K T - & - 1 7 s g > t $ T Q ( c.K.VXgXlXlX3XdXfXdXdXjX3XVXmXBXwX1XBXwXsXVXwXsXdXmXdXiXD.~.",
"D.~.iXsXlXiXdXiXlXdXlXnXjXwX(.4.r.x.4.T 8 7 * & & 1 7 t , e 7 8 d | c.[.1XlXvXdXsXjXwXdX1X8XwXxXVXlXmXlXnXjXwXiXxXhXvXfX3X8XY.~.",
"I.~.dXmXiXmXfXdX8X7X8XVX8X;X>X^.;.r.` | 7 q 2 2 7 2 - , 8 8 1 1 s B N.bXlX8X1XsXfXwXwX8X[.}.}.mXBXdXVXxXwX3XnXxX8XwXiXsXdX3XI.~.",
"I.~.sXVXiXVX6X;X,XNXbX8XwXdXdX'.u.| 4.` q > 7 7 7 1 % 1 q > - > L T K..X9XBXwXlXjXlX1XmXO X A rXwX;X1X*XfXzX;X1XlXzX1X&X1XrXI.~.",
"A.~.bXiXsXiXMX8XmX1XnXdXxXdXhX].4.r.O.T 7 1 7 7 7 > t j j | B L T ;.^.8XdXdX8XwXrX;XNXuXX O h 8X3XwXrX:X[.}.,X1X;X}.dX}.sXrXA.~.",
"m.~.iXVXiXdXdX3X9XdXdXlXnX9XdX).y.r.*.t B 7 1 8 t q 7 + 2 7 4.O.( p.N.9XlXfXxXVXxXwXwXMXi f b b P.dXwX9Xi O ).eX3 5 /.{.[.}.A.~.",
"m.~.iX*XiX8X1XsXlX8XdX8X9X<X<X`.r.( Q K t q 1 7 8 w 2 & j j x r.` x.j.dX8XiX[.yX3X;XiXwXh f b b P.9X{.].f f  XdX3 3 ^.(.(.{.B.~.",
"m.~.1XiX1X8XdX1X8XwXmXdXdXlX-X%.;.` T *.L ( t 8 w 8 t ` g.a.t.a.7.;.N.[.+XwX  X i 3XdXfXh f b b >.>.b b f i ).dX3 3 X . /.}.F.~.",
"H.~.hX#X;XwXwXlXvXVXdXdXvXiXy.| 4.T Q | *.L 7 g y g 4.( d ( a.g.x.a.J.). X^.. X i dXwXpX3.f b b q.>.b b i i ).@X; 3 O O ^.(.W.~.",
"m.~.rX1XwXvXbXiX#X#X).{./.u.g T ;.B j B *.*.( j j 8 g 7 j ( O.*.x.g.) a O 3 X i i ;X1XwXXX].) b b b b b /.`.).kXO 3 c c . X W.~.",
"H.~.8X#X#X[.).{./.h.Z.u.u.9 g 2 O.y 1 j | K B 8 u > 1 t 1 e B O.4.r.r.~ a 3 O f i (.`.[.).).o.b b b b 0 {.-X).{.O 3 c c . . C.~.",
"H.!.<X<X).^./.K.h.> p q : 4 s 7 L 4 , g T p.*.B t 2 1 - & j Q Q x.x.*.~ Y 3 8.<X-X}.+X{.X.X.X.>./.(.>.0.s.z.).(.^._.c c _ :.C.!.",
"C.!.{.{.^.j.x : : @ > * # # t 7 t : - w B O.T ~ O.B u Q *.*.4.g.r.d.| Y K 3 I (.(.[.[._.1.X.X.q.)./.>.>.s.s./.(.{./.c H 0._ H.!.",
"C.!..X/.v.# # # % # @ : : # 7 7 > & , , j K 4.| B j | K 1 r.Q 4.r.*.Y Y l K ; Q.!.R.) X.X.q.q.q.e.T.q.q.z.s.:._ d.{././._ :.H.!.",
"L.!.-XN.x # # # @ o o % o = > 7 < : - > 4 j 4.Q *.l j K 4.| g.g.r.7.#.l l l ; T.T.T.#.X.X.>.q.q.q.q.z.z.s.z._ H #.6.3.2._ _ C.!.",
"L.~.v.` < 4 s * o # # o # o + , 7 = , > > 7 T *.T O.4.p.7.t.t.;.d.7.7.l Y l #._ T.X.X.X.X.s.q.q.q.q.q.z.s.z._ _ ..o.,.3.Y c C.!.",
"C.~.` 9 o : - 1 : o o @ @ # # o # = : : > > d ( r.K K a.g.x.g.K #.#.Y l a l k _ ..X.b >.q.s.s.z.s.q.q.s.z.z._ _ ..K.N.N.c c L.!.",
"L.~.< # # o # o 7 # o o @ @ # # * * - : - , t K ( a.( g.x.x.a.a ~ ~ l l a a K H H >...s.>.s.s.z.s.s.z.T.z.T.0._ ..N.0.0.0.0.C.!.",
"L.~.# o # o # + # , 7 # # % % @ o - & , , 7 , e K 4.g.j.a.4.| u l Y a l a l l H H >.>.>.s.s.s.s.s.s.z.T.T.z.:._ ..{ :.0.s.:.L.~.",
"m.!.# o o o o o # o = d # # + + : @ - : & , > , B B K *.Q Q ( 8 a Y a 8 l a l j P.K.Z.N.N.N.P.N.Z.v.l.{ { o. .6.9. .3.2.2.6.G.~.",
"n.!.# $ o o o o o # o o B # # @ # > # : > , 2 1 > 7 l K B l l 8 a l a 1 Y j a l P.N.N.N.Z.Z.c.l.o.o.o.8.8.=.8.o.6.6.6.6.w.6.G.~.",
"n.!.O O O   o o o + # @ 1 l > 8 + 7 + @ # = > 7 7 t s d u 8 d 1 u a l r l a l T ^.P.Z.N.i.8.6.=. .{ =.,.=.=.$.6.6.6.2.,.2.6.m.~.",
"S.!.O X O X o o o o o : j y > o % * $ @ % % % - > > 1 q 7 w j 1 a l r r r l d 7 +. .=.o.=.,.6.,.,.$. .=. .6.6.=.6.9.6.2.2.=.n.~.",
"S.!.X X O X o o o o U N U W N U U W W U W U U U U N U E E ^ { ) { E ) P E E { ' =. .o.o.o.{ { 6.{ o. .=.=.,.6.6.w.6.,.6.,.,.D.~.",
"S.!.X X O O   o o G ^ U W ' W ^ ^ ^ [ ^ ' ' ' ' ) / ^ ' ' ^  .{ ] ) ) E E ^ ' ] 8.=.8.8.,.8.3.+.+.$.+.,.6.3.,.-.3.3.3.-.<.3.D.~.",
"S.!.3 3 6 5 O O O O E E ) ' $.{ )  .+.2.@.' ' [ +. .+.'  .+.! ' ' E ! )  . . .$.8.-.w.3.-.3.-.-.-.-.<.<.3.,.3.+.+. .+.+.<.w.n.~.",
"D.~.5 0 5 3 O O O O E ) ^ v.P.M.<.^ ^ f.Z.Z.i.=.2.+.+.+.=.+.2. . .,.+.,. . . . .3.3.w.8.3.+.8.w.3.w.3.3.6.-.+.+.-.@.2.<.<.5.S.~.",
"D.~.0 3 3 6 O O X O v.l.E { E Z.Z.Z.Z.f.<.8. .,.=.-.2.+.' [  .[ +. .$.' ' ' -.$.-.<.5.<.3.3.3.-.<.3.<.<.-.-.-.+.,.<.<.2.+.<.S.~.",
"Y.~.5 6 3 6 O O O O l.Z.Z.b.Z.Z.Z.P.Z.,.{ ]  .} { ' ' ^ ' ' ) E / $.] ] ] ' ] ] 3.$.$.$.3.,.3.w.3.6.3.-.<.-.3.$.+.2.3.<.<.<.D.~.",
"D.~.3 5 5 0 c c c c 6 5 3 3 k.v.f.G z z Z G G Z G G G J J ! G ! I P P G P ! J ! A G ! J / R ! R / / R ] } } } R } R } } ) } D.~.",
"I.~.0 5 0 0 c c H H 3 3 3 3 k.c.c.P A n n Z n z n n z n A Z G n z z n z z n Z G J D I I J J R J Z m F J F F F G F R R m R I D.~.",
"I.~.3 5 5 c c H c H 3 3 3 6 h.c.c.! A ! n z h n z M n A n D G z z n z n A A D J A D D D D D n F n C D I S G R I I J R J C I Y.~.",
"A.~.0 5 6 3 H H c c 3 3 3 3 v.N.c.v.c.c.c.z n n h z n n n A z J z n Z G M S m D D G I R D v v v m G D C D S R S D ! J P R I I.~.",
"S.!.0 3 1 O _ _ _ H 3 6 6 6 l.f.v.v.l.v.l.h n n A z G n Z n n G n n R m D V D D D C M m S R m R S m R S I I R R A J G M o.S I.~.",
"S.!.Z.+.] P :.:.:.:.:.:.:.0.:.0.:.:.V.b.c.h v M M G A z n z A n M z V I P J R } G h R I I m D F S R D I R R J P 3.U A P R I A.~.",
"S.!.N.! [ P 0.:.:.0.0.:.0.0.0.:.0.:.Z.c.f.C G z M n n A n n n M I V V R A G G n G z M v G C D R R S J I I P n Z R R A Z v I A.~.",
"D.~.Z.N.c.V.:.:.:.:.:.0.0.:.0.:.:._ M.k.f.f.v.l./ P Z C v v n P F z n M P V I G V M S I n G V C I R R / R G Z I F V N n R ! B.~.",
"D.~.v.N.N.v.:.:.0.:.0.:.0.:._ _ :._ h.l.l.k.5.f.+.h v m f v v m h h h S v z G m m S M D M h M v M M n m m M S D v M z A A / n.!.",
"B.m.G.G.G.W.F.R.F.F.n.F.m.m.m.m.n.n.n.D.n.D.D.D.H.H.G.G.G.B.B.m.G.G.G.W.F.R.F.F.n.F.m.m.m.m.n.n.n.D.n.D.D.D.H.H.G.G.G.D.D.n.n.!.",
"!.~.~.~.~.~.~.~.~.!.!.!.!.!.!.!.!.!.!.!.~.~.~.~.~.~.~.~.~.~.!.~.~.~.~.~.~.~.~.!.!.!.!.!.!.!.!.!.!.~.~.~.~.~.~.~.~.~.~.!.!.!.!.!."
};
